<svg width="64" height="64" viewBox="0 0 64 64" fill="none" xmlns="http://www.w3.org/2000/svg">
<mask id="mask0" mask-type="alpha" maskUnits="userSpaceOnUse" x="0" y="0" width="64" height="64">
<rect width="64" height="64" fill="#C4C4C4"/>
</mask>
<g mask="url(#mask0)">
<path d="M32 64C49.6731 64 64 49.6731 64 32C64 14.3269 49.6731 0 32 0C14.3269 0 0 14.3269 0 32C0 49.6731 14.3269 64 32 64Z" fill="#FFF0F0"/>
<path d="M0 48H11.9V60L29.9 42L17.9 30L0 48Z" fill="url(#paint0_linear)"/>
<path d="M46 30L34 42L52 60V48H63.9L46 30Z" fill="url(#paint1_linear)"/>
<path d="M15 11H48.9V44.9H15V11Z" fill="url(#paint2_linear)"/>
<path d="M32 4L56 28L32 52L8 28L32 4Z" fill="url(#paint3_linear)"/>
<path d="M43.2 23.2L40.1 20.1L28.8 31.4L23.1 25.8L20 28.9L28.7 37.6L43.2 23.2Z" fill="#FFE5F0"/>
</g>
<defs>
<linearGradient id="paint0_linear" x1="21.1937" y1="38.2077" x2="1.4437" y2="59.9577" gradientUnits="userSpaceOnUse">
<stop stop-color="#7350FF"/>
<stop offset="1" stop-color="#B870FF"/>
</linearGradient>
<linearGradient id="paint1_linear" x1="40.3162" y1="36.32" x2="65.9659" y2="61.9697" gradientUnits="userSpaceOnUse">
<stop stop-color="#7350FF"/>
<stop offset="1" stop-color="#B870FF"/>
</linearGradient>
<linearGradient id="paint2_linear" x1="103.162" y1="10.2317" x2="3.34029" y2="35.182" gradientUnits="userSpaceOnUse">
<stop stop-color="#FFADCE"/>
<stop offset="1" stop-color="#F078A4"/>
</linearGradient>
<linearGradient id="paint3_linear" x1="103.162" y1="10.2317" x2="3.34031" y2="35.1819" gradientUnits="userSpaceOnUse">
<stop stop-color="#FFADCE"/>
<stop offset="1" stop-color="#F078A4"/>
</linearGradient>
</defs>
</svg>
