<svg width="64" height="64" viewBox="0 0 64 64" fill="none" xmlns="http://www.w3.org/2000/svg">
<mask id="mask0" mask-type="alpha" maskUnits="userSpaceOnUse" x="0" y="0" width="64" height="64">
<rect width="64" height="64" fill="#C4C4C4"/>
</mask>
<g mask="url(#mask0)">
<path d="M32 64C49.6731 64 64 49.6731 64 32C64 14.3269 49.6731 0 32 0C14.3269 0 0 14.3269 0 32C0 49.6731 14.3269 64 32 64Z" fill="#FFF0F0"/>
<path d="M15.7001 15.9H47.0001C53.8001 15.9 59.4001 21.3 59.4001 27.9V64L47.0001 52H15.7001C8.90006 52 3.30005 46.6 3.30005 40V28C3.40005 21.3 8.90006 15.9 15.7001 15.9Z" fill="url(#paint0_linear)"/>
<path d="M31.5 37.1C32.9 37.1 34.1 35.9 34.1 34.5C34.1 33 32.9 31.9 31.5 31.9C30.1 31.9 28.9 33.1 28.9 34.5C28.9 35.9 30 37.1 31.5 37.1Z" fill="white"/>
<path d="M54.5 18.5C52.4 16.9 49.7 15.9 46.8 15.9H33.3L28.4 20.6L40.1 32.2L54.5 18.5Z" fill="#A5D4F3" fill-opacity="0.7"/>
<path d="M6.30002 20.2C4.50002 22.3 3.40002 25 3.40002 27.9V39.9C3.40002 42.7 4.40002 45.3 6.10002 47.4L19.7 34.1L6.30002 20.2Z" fill="#A5D4F3" fill-opacity="0.7"/>
<path d="M15.7001 52H38.0001L24.1001 38.1L11.1001 51.1C12.5001 51.6 14.1001 52 15.7001 52Z" fill="#A5D4F3" fill-opacity="0.7"/>
<path d="M59.4 32.1L49.4 42.2L59.4 52.1V32.1Z" fill="#A5D4F3" fill-opacity="0.7"/>
<path d="M58.0001 22.5L40.0001 39.5C39.6001 39.9 38.9001 39.9 38.5001 39.5L31.5001 32.6L29.3 34.7L36.3 41.6C37.1 42.4 38.1001 42.8 39.2001 42.8C40.3001 42.8 41.3001 42.4 42.1001 41.6L59.1001 25.6C58.9001 24.5 58.5001 23.5 58.0001 22.5Z" fill="white"/>
<path d="M26.9 34.6L31.5 30.1L36.1 34.6L31.5 39.2L26.9 34.6Z" fill="url(#paint1_linear)"/>
<path d="M20.9 24.7L31.5 34.9H31.6H31.7L42.3 24.7C45 22 46.7 18.5 46.7 14.5C46.7 6.5 40 0 31.7 0C23.4 0 16.7 6.5 16.7 14.5C16.5 18.4 18.2 22.1 20.9 24.7Z" fill="url(#paint2_linear)"/>
<path d="M31.6195 7.93565L24.5485 15.0067L31.6195 22.0777L38.6905 15.0067L31.6195 7.93565Z" fill="white"/>
</g>
<defs>
<linearGradient id="paint0_linear" x1="48.6414" y1="28.8498" x2="-11.2667" y2="78.5584" gradientUnits="userSpaceOnUse">
<stop stop-color="#B2DEFF"/>
<stop offset="0.9987" stop-color="white"/>
</linearGradient>
<linearGradient id="paint1_linear" x1="31.7766" y1="43.0084" x2="31.456" y2="33.3902" gradientUnits="userSpaceOnUse">
<stop stop-color="#A64DFF"/>
<stop offset="0.9986" stop-color="#7350FF"/>
</linearGradient>
<linearGradient id="paint2_linear" x1="76.6882" y1="7.6247" x2="13.3102" y2="21.2146" gradientUnits="userSpaceOnUse">
<stop stop-color="#FFADCE"/>
<stop offset="1" stop-color="#F078A4"/>
</linearGradient>
</defs>
</svg>
