<svg width="64" height="64" viewBox="0 0 64 64" fill="none" xmlns="http://www.w3.org/2000/svg">
<mask id="mask0" mask-type="alpha" maskUnits="userSpaceOnUse" x="0" y="0" width="64" height="64">
<rect width="64" height="64" fill="#C4C4C4"/>
</mask>
<g mask="url(#mask0)">
<path d="M31.9014 58.2C46.3713 58.2 58.1014 46.4698 58.1014 32C58.1014 17.5301 46.3713 5.79999 31.9014 5.79999C17.4316 5.79999 5.70142 17.5301 5.70142 32C5.70142 46.4698 17.4316 58.2 31.9014 58.2Z" fill="#F8F9FB"/>
<path d="M54.8014 27.4H36.5014C31.5014 27.4 27.4014 31.5 27.4014 36.5V45.6C27.4014 50.6 31.5014 54.7 36.5014 54.7H54.8014L63.9014 63.8V36.4C63.9014 31.5 59.8014 27.4 54.8014 27.4Z" fill="#FFDA84"/>
<path d="M57.9015 35H33.5015V38.8H57.9015V35Z" fill="#FCC565"/>
<path d="M53.2014 43.4H33.4014V47.2H53.2014V43.4Z" fill="#FCC565"/>
<path d="M11.0015 0H33.1014C39.2014 0 44.1014 5 44.1014 11V22C44.1014 28.1 39.1014 33 33.1014 33H11.0015L0.00147438 44V10.9C-0.0985256 4.89999 4.90147 0 11.0015 0Z" fill="url(#paint0_linear)"/>
<path d="M36.5016 9.90002H9.10156V14.5H36.5016V9.90002Z" fill="url(#paint1_linear)"/>
<path d="M30.4016 19H9.10156V23.6H30.4016V19Z" fill="url(#paint2_linear)"/>
</g>
<defs>
<linearGradient id="paint0_linear" x1="-44.3747" y1="-5.4473" x2="70.672" y2="45.6002" gradientUnits="userSpaceOnUse">
<stop stop-color="#8FCEFF"/>
<stop offset="0.9986" stop-color="#F0F8FF"/>
</linearGradient>
<linearGradient id="paint1_linear" x1="32.1638" y1="-227.93" x2="29.9308" y2="-170.764" gradientUnits="userSpaceOnUse">
<stop stop-color="#B2DEFF"/>
<stop offset="0.9973" stop-color="#8FCEFF"/>
</linearGradient>
<linearGradient id="paint2_linear" x1="29.4774" y1="-228.034" x2="27.2444" y2="-170.869" gradientUnits="userSpaceOnUse">
<stop stop-color="#B2DEFF"/>
<stop offset="0.9973" stop-color="#8FCEFF"/>
</linearGradient>
</defs>
</svg>
