<svg height="511pt" viewBox="0 0 511 511.99993" width="511pt" xmlns="http://www.w3.org/2000/svg"><path d="m25.910156 201.535156c-9.304687 0-15.914062-9.023437-13.019531-17.871094 32.792969-100.070312 126.957031-172.421874 237.988281-172.421874 117.566406 0 216.191406 81.035156 243.105469 190.292968zm0 0" fill="#ade8f0"/><path d="m488.863281 183.664062c8.035157 24.539063 12.394531 50.734376 12.394531 77.957032 0 138.28125-112.097656 250.378906-250.378906 250.378906s-250.378906-112.097656-250.378906-250.378906c0-27.222656 4.359375-53.417969 12.394531-77.957032 11.902344 1.257813 24.152344-1.6875 34.421875-8.847656 17.472656-12.179687 40.6875-12.179687 58.160156 0 17.472657 12.179688 40.6875 12.179688 58.160157 0 17.472656-12.179687 40.6875-12.179687 58.160156 0 17.476563 12.179688 40.6875 12.179688 58.160156 0 17.476563-12.179687 40.6875-12.179687 58.164063 0 17.472656 12.179688 40.6875 12.179688 58.160156 0 17.472656-12.179687 40.6875-12.179687 58.160156 0 10.269532 7.15625 22.519532 10.105469 34.421875 8.847656zm0 0" fill="#2ed0e1"/><path d="m512.496094 182.894531c.570312 101.484375-82.144532 184.835938-183.628906 185.007813-24.070313.042968-47.066407-4.542969-68.148438-12.914063-22.726562-9.023437-48.613281-4.011719-65.90625 13.28125l-77.042969 77.046875-50.585937-50.585937 77.042968-77.042969c17.292969-17.292969 22.304688-43.179688 13.28125-65.910156-8.367187-21.082032-12.953124-44.078125-12.910156-68.148438.175782-101.484375 83.53125-184.203125 185.015625-183.62499975 100.753907.57031275 182.316407 82.14062475 182.882813 182.89062475zm0 0" fill="#4f66cf"/><path d="m117.769531 445.316406-50.585937-50.585937 77.042968-77.042969c17.292969-17.292969 22.304688-43.179688 13.28125-65.910156-8.367187-21.078125-12.953124-44.074219-12.910156-68.148438.175782-101.488281 83.53125-184.203125 185.015625-183.62499975 55.3125.31249975 104.832031 25.04296875 138.351563 63.94921875-31.960938-27.539063-73.496094-44.277344-118.933594-44.53125-101.484375-.578125-176.933594 74.957031-177.109375 176.441406-.039063 24.074219 4.542969 47.070313 12.914063 68.152344 9.023437 22.730469-3.898438 55.796875-21.191407 73.089844l-77.042969 77.042969zm0 0" fill="#314dc8"/><path d="m123.648438 338.265625 50.585937 50.585937-73.300781 73.300782c-18.804688-13.128906-36.226563-31.410156-50.589844-50.585938zm0 0" fill="#fd2aa7"/><path d="m174.234375 388.851562-39.699219 39.699219c-8.765625 8.765625-23.082031 8.273438-31.300781-1.003906-.097656-.109375-.195313-.21875-.289063-.328125-7.492187-8.480469-7.046874-21.34375.953126-29.34375l39.675781-39.679688zm0 0" fill="#fd4fb6"/><path d="m328.546875 40.238281c79.371094 0 143.714844 64.34375 143.714844 143.714844 0 79.367187-64.34375 143.710937-143.714844 143.710937s-143.710937-64.34375-143.710937-143.710937c0-79.371094 64.339843-143.714844 143.710937-143.714844zm0 0" fill="#84deea"/><path d="m352.757812 325.625c-7.871093 1.335938-15.957031 2.039062-24.210937 2.039062-79.371094 0-143.710937-64.339843-143.710937-143.710937s64.339843-143.714844 143.710937-143.714844c8.253906 0 16.339844.707031 24.210937 2.042969-67.84375 11.507812-119.507812 70.550781-119.507812 141.671875 0 71.117187 51.664062 130.160156 119.507812 141.671875zm0 0" fill="#2ed0e1"/><path d="m472.242188 182.6875c.007812.421875.019531.839844.019531 1.265625 0 79.367187-64.34375 143.710937-143.714844 143.710937s-143.710937-64.34375-143.710937-143.710937c0-6.03125.375-11.972656 1.097656-17.808594 12.351562-1.660156 25.179687 1.226563 35.863281 8.671875 17.476563 12.179688 40.6875 12.179688 58.160156 0 17.476563-12.179687 40.6875-12.179687 58.164063 0 17.472656 12.179688 40.6875 12.179688 58.160156 0 17.472656-12.179687 40.6875-12.179687 58.160156 0 5.488282 3.824219 11.539063 6.445313 17.800782 7.871094zm0 0" fill="#0ab59e"/><path d="m472.242188 182.6875c.007812.421875.019531.839844.019531 1.265625 0 71.117187-51.664063 130.160156-119.507813 141.671875-67.839844-11.511719-119.503906-70.554688-119.503906-141.671875 0-1.050781.019531-2.101563.042969-3.144531 15.347656 5.660156 32.8125 3.667968 46.667969-5.992188 17.472656-12.179687 40.6875-12.179687 58.160156 0 17.472656 12.179688 40.6875 12.179688 58.160156 0 17.472656-12.179687 40.6875-12.179687 58.160156 0 5.488282 3.824219 11.539063 6.445313 17.800782 7.871094zm0 0" fill="#0ed1b2"/><path d="m499.289062 91.820312-143.660156 162.8125c-8.246094 9.34375-20.222656 14.53125-32.679687 14.144532-12.453125-.386719-24.089844-6.300782-31.738281-16.136719l-62.597657-80.484375c-6.929687-8.910156-5.324219-21.75 3.585938-28.679688l8.066406-6.273437c8.910156-6.929687 21.75-5.324219 28.683594 3.582031l51.960937 66.808594c1.964844 2.527344 5.746094 2.644531 7.863282.242188l132.199218-149.820313c7.46875-8.464844 20.386719-9.273437 28.847656-1.804687l7.664063 6.761718c8.464844 7.46875 9.273437 20.382813 1.804687 28.847656zm0 0" fill="#fdf385"/><path d="m366.304688 242.535156-10.675782 12.097656c-8.242187 9.34375-20.222656 14.53125-32.675781 14.144532-12.457031-.386719-24.089844-6.300782-31.742187-16.136719l-62.59375-80.484375c-6.929688-8.910156-5.328126-21.75 3.582031-28.679688l8.066406-6.273437c1.453125-1.132813 3.019531-2.011719 4.640625-2.691406-1.5625 5.945312-.457031 12.519531 3.609375 17.746093l62.597656 80.480469c7.648438 9.835938 19.285157 15.753907 31.738281 16.136719 8.363282.257812 16.507813-2.003906 23.453126-6.339844zm0 0" fill="#fdcb6b"/></svg>