<?xml version="1.0"?>
<svg xmlns="http://www.w3.org/2000/svg" xmlns:xlink="http://www.w3.org/1999/xlink" xmlns:svgjs="http://svgjs.com/svgjs" version="1.1" width="512" height="512" x="0" y="0" viewBox="0 0 64 64" style="enable-background:new 0 0 512 512" xml:space="preserve" class=""><g><g xmlns="http://www.w3.org/2000/svg" id="bookmark-star-computer-mouse-keyboard"><path d="m59.83 50.17a4 4 0 0 0 -6.83 2.83v4a4 4 0 0 0 8 0v-4a4.025 4.025 0 0 0 -1.17-2.83z" fill="#aba1ed" data-original="#bddbff" style="" class=""/><path d="m56.23 18h-7.05l-2.18-6.71-2.18 6.71h-7.05l5.7 4.15-2.18 6.7 5.71-4.14 5.71 4.14-2.18-6.7z" fill="#aba1ed" data-original="#bddbff" style="" class=""/><path d="m47 35h-40a4 4 0 0 1 -4-4v-4h31.35a14.006 14.006 0 0 0 12.65 8z" fill="#aba1ed" data-original="#bddbff" style="" class=""/><path d="m32 43v2h-14v-2a2.006 2.006 0 0 1 2-2h10a2.006 2.006 0 0 1 2 2z" fill="#aba1ed" data-original="#bddbff" style="" class=""/><g fill="#57a4ff"><path d="m46.049 10.983-1.955 6.017h-6.327a1 1 0 0 0 -.588 1.809l5.121 3.719-1.955 6.017a1 1 0 0 0 1.539 1.118l5.116-3.719 5.119 3.719a1 1 0 0 0 1.539-1.118l-1.958-6.017 5.118-3.719a1 1 0 0 0 -.585-1.809h-6.327l-1.955-6.017a1 1 0 0 0 -1.9 0zm2.18 7.326a1 1 0 0 0 .951.691h3.975l-3.216 2.337a1 1 0 0 0 -.363 1.118l1.224 3.781-3.212-2.336a1 1 0 0 0 -1.176 0l-3.212 2.336 1.228-3.781a1 1 0 0 0 -.363-1.118l-3.22-2.337h3.975a1 1 0 0 0 .951-.691l1.229-3.781z" fill="#523be4" data-original="#57a4ff" style="" class=""/><path d="m41 48h-32a5 5 0 0 0 -5 5v4a5 5 0 0 0 5 5h32a5 5 0 0 0 5-5v-4a5 5 0 0 0 -5-5zm3 9a3.009 3.009 0 0 1 -3 3h-32a3.009 3.009 0 0 1 -3-3v-4a3.009 3.009 0 0 1 3-3h32a3.009 3.009 0 0 1 3 3z" fill="#523be4" data-original="#57a4ff" style="" class=""/><path d="m58 48.1v-2.1a3.009 3.009 0 0 0 -3-3h-6a1 1 0 0 1 -1-1v-6.05a14.979 14.979 0 0 0 -.1-29.9 4.99 4.99 0 0 0 -4.9-4.05h-36a5 5 0 0 0 -5 5v24a5 5 0 0 0 5 5h14v4h-1a3.009 3.009 0 0 0 -3 3v2a1 1 0 0 0 1 1h14a1 1 0 0 0 1-1v-2a3.009 3.009 0 0 0 -3-3h-1v-4h17v6a3.009 3.009 0 0 0 3 3h6a1 1 0 0 1 1 1v2.1a5.017 5.017 0 0 0 -4 4.9v4a5 5 0 0 0 10 0v-4a5.017 5.017 0 0 0 -4-4.9zm-54-41.1a3.009 3.009 0 0 1 3-3h36a2.989 2.989 0 0 1 2.83 2.06 15.01 15.01 0 0 0 -13.83 14.94 14.807 14.807 0 0 0 .88 5h-28.88zm26 35a1 1 0 0 1 1 1v1h-12v-1a1 1 0 0 1 1-1zm-7-2v-4h4v4zm-16-6a3.009 3.009 0 0 1 -3-3v-3h29.74a15.04 15.04 0 0 0 5.81 6zm27-13a13 13 0 1 1 13 13 13.012 13.012 0 0 1 -13-13zm26 36a3 3 0 0 1 -6 0v-4a3.01 3.01 0 0 1 2-2.82v2.82h2v-2.82a3.01 3.01 0 0 1 2 2.82z" fill="#523be4" data-original="#57a4ff" style="" class=""/><path d="m20 56h10v2h-10z" fill="#523be4" data-original="#57a4ff" style="" class=""/><path d="m12 52h2v2h-2z" fill="#523be4" data-original="#57a4ff" style="" class=""/><path d="m8 52h2v2h-2z" fill="#523be4" data-original="#57a4ff" style="" class=""/><path d="m16 52h2v2h-2z" fill="#523be4" data-original="#57a4ff" style="" class=""/><path d="m12 56h2v2h-2z" fill="#523be4" data-original="#57a4ff" style="" class=""/><path d="m8 56h2v2h-2z" fill="#523be4" data-original="#57a4ff" style="" class=""/><path d="m16 56h2v2h-2z" fill="#523be4" data-original="#57a4ff" style="" class=""/><path d="m36 56h2v2h-2z" fill="#523be4" data-original="#57a4ff" style="" class=""/><path d="m32 56h2v2h-2z" fill="#523be4" data-original="#57a4ff" style="" class=""/><path d="m40 56h2v2h-2z" fill="#523be4" data-original="#57a4ff" style="" class=""/><path d="m20 52h2v2h-2z" fill="#523be4" data-original="#57a4ff" style="" class=""/><path d="m24 52h2v2h-2z" fill="#523be4" data-original="#57a4ff" style="" class=""/><path d="m28 52h2v2h-2z" fill="#523be4" data-original="#57a4ff" style="" class=""/><path d="m32 52h2v2h-2z" fill="#523be4" data-original="#57a4ff" style="" class=""/><path d="m36 52h2v2h-2z" fill="#523be4" data-original="#57a4ff" style="" class=""/><path d="m40 52h2v2h-2z" fill="#523be4" data-original="#57a4ff" style="" class=""/></g></g></g></svg>
