<?xml version="1.0"?>
<svg xmlns="http://www.w3.org/2000/svg" xmlns:xlink="http://www.w3.org/1999/xlink" xmlns:svgjs="http://svgjs.com/svgjs" version="1.1" width="512" height="512" x="0" y="0" viewBox="0 0 64 64" style="enable-background:new 0 0 512 512" xml:space="preserve" class=""><g><g xmlns="http://www.w3.org/2000/svg" id="heart-sweetheart-computer-mouse-keyboard"><path d="m61 53v4a4 4 0 0 1 -8 0v-4a4 4 0 1 1 8 0z" fill="#a99cfb" data-original="#bddbff" style="" class=""/><path d="m51 13a4.966 4.966 0 0 0 -4 2.03 4.985 4.985 0 0 0 -9 2.97c0 6 9 11 9 11s9-5 9-11a5 5 0 0 0 -5-5z" fill="#a99cfb" data-original="#bddbff" style="" class=""/><path d="m47 35h-40a4 4 0 0 1 -4-4v-4h31.35a14.006 14.006 0 0 0 12.65 8z" fill="#a99cfb" data-original="#bddbff" style="" class=""/><path d="m32 43v2h-14v-2a2.006 2.006 0 0 1 2-2h10a2.006 2.006 0 0 1 2 2z" fill="#a99cfb" data-original="#bddbff" style="" class=""/><g fill="#57a4ff"><path d="m43 12a6.006 6.006 0 0 0 -6 6c0 6.514 9.126 11.658 9.515 11.874a1 1 0 0 0 .97 0c.389-.216 9.515-5.36 9.515-11.874a6.006 6.006 0 0 0 -6-6 5.914 5.914 0 0 0 -4 1.544 5.914 5.914 0 0 0 -4-1.544zm8 2a4 4 0 0 1 4 4c0 4.584-6.2 8.729-8 9.837-1.8-1.108-8-5.253-8-9.837a4 4 0 0 1 4-4 3.96 3.96 0 0 1 3.2 1.625 1.037 1.037 0 0 0 1.6 0 3.96 3.96 0 0 1 3.2-1.625z" fill="#523be4" data-original="#57a4ff" style="" class=""/><path d="m41 48h-32a5 5 0 0 0 -5 5v4a5 5 0 0 0 5 5h32a5 5 0 0 0 5-5v-4a5 5 0 0 0 -5-5zm3 9a3.009 3.009 0 0 1 -3 3h-32a3.009 3.009 0 0 1 -3-3v-4a3.009 3.009 0 0 1 3-3h32a3.009 3.009 0 0 1 3 3z" fill="#523be4" data-original="#57a4ff" style="" class=""/><path d="m58 48.1v-2.1a3.009 3.009 0 0 0 -3-3h-6a1 1 0 0 1 -1-1v-6.05a14.979 14.979 0 0 0 -.1-29.9 4.99 4.99 0 0 0 -4.9-4.05h-36a5 5 0 0 0 -5 5v24a5 5 0 0 0 5 5h14v4h-1a3.009 3.009 0 0 0 -3 3v2a1 1 0 0 0 1 1h14a1 1 0 0 0 1-1v-2a3.009 3.009 0 0 0 -3-3h-1v-4h17v6a3.009 3.009 0 0 0 3 3h6a1 1 0 0 1 1 1v2.1a5.017 5.017 0 0 0 -4 4.9v4a5 5 0 0 0 10 0v-4a5.017 5.017 0 0 0 -4-4.9zm-54-41.1a3.009 3.009 0 0 1 3-3h36a2.989 2.989 0 0 1 2.83 2.06 15.01 15.01 0 0 0 -13.83 14.94 14.807 14.807 0 0 0 .88 5h-28.88zm26 35a1 1 0 0 1 1 1v1h-12v-1a1 1 0 0 1 1-1zm-7-2v-4h4v4zm-16-6a3.009 3.009 0 0 1 -3-3v-3h29.74a15.04 15.04 0 0 0 5.81 6zm27-13a13 13 0 1 1 13 13 13.012 13.012 0 0 1 -13-13zm26 36a3 3 0 0 1 -6 0v-4a3.01 3.01 0 0 1 2-2.82v2.82h2v-2.82a3.01 3.01 0 0 1 2 2.82z" fill="#523be4" data-original="#57a4ff" style="" class=""/><path d="m20 56h10v2h-10z" fill="#523be4" data-original="#57a4ff" style="" class=""/><path d="m12 52h2v2h-2z" fill="#523be4" data-original="#57a4ff" style="" class=""/><path d="m8 52h2v2h-2z" fill="#523be4" data-original="#57a4ff" style="" class=""/><path d="m16 52h2v2h-2z" fill="#523be4" data-original="#57a4ff" style="" class=""/><path d="m12 56h2v2h-2z" fill="#523be4" data-original="#57a4ff" style="" class=""/><path d="m8 56h2v2h-2z" fill="#523be4" data-original="#57a4ff" style="" class=""/><path d="m16 56h2v2h-2z" fill="#523be4" data-original="#57a4ff" style="" class=""/><path d="m36 56h2v2h-2z" fill="#523be4" data-original="#57a4ff" style="" class=""/><path d="m32 56h2v2h-2z" fill="#523be4" data-original="#57a4ff" style="" class=""/><path d="m40 56h2v2h-2z" fill="#523be4" data-original="#57a4ff" style="" class=""/><path d="m20 52h2v2h-2z" fill="#523be4" data-original="#57a4ff" style="" class=""/><path d="m24 52h2v2h-2z" fill="#523be4" data-original="#57a4ff" style="" class=""/><path d="m28 52h2v2h-2z" fill="#523be4" data-original="#57a4ff" style="" class=""/><path d="m32 52h2v2h-2z" fill="#523be4" data-original="#57a4ff" style="" class=""/><path d="m36 52h2v2h-2z" fill="#523be4" data-original="#57a4ff" style="" class=""/><path d="m40 52h2v2h-2z" fill="#523be4" data-original="#57a4ff" style="" class=""/></g></g></g></svg>
