<?xml version="1.0"?>
<svg xmlns="http://www.w3.org/2000/svg" id="Capa_1" enable-background="new 0 0 501 501" height="512px" viewBox="0 0 501 501" width="512px"><g><g><path d="m501 256c0 135.31-109.69 245-245 245s-245-109.69-245-245 109.69-245 245-245 245 109.69 245 245z" fill="#453d83" data-original="#453D83"/><path d="m130 150h-55c-41.421 0-75-33.579-75-75 0-41.421 33.579-75 75-75h55c41.421 0 75 33.579 75 75 0 41.421-33.579 75-75 75z" fill="#e1b91e" data-original="#E1B91E"/><path d="m371.998 75.569c-.307 41.353-34.585 74.431-75.94 74.431h-74.68c-1.688 0-3.262.852-4.186 2.265l-27.007 41.33c-1.973 3.02-6.398 3.02-8.371 0l-27.007-41.33c-.923-1.413-2.498-2.265-4.186-2.265h-34.68c-41.355 0-75.633-33.078-75.939-74.431-.309-41.683 33.387-75.569 74.998-75.569h182c41.611 0 75.307 33.886 74.998 75.569z" fill="#e9cc5a" data-original="#E9CC5A"/><path d="m196 30v90c0 5.523-4.477 10-10 10s-10-4.477-10-10v-90c0-5.523 4.477-10 10-10s10 4.477 10 10zm-45 10c-5.523 0-10 4.477-10 10v50c0 5.523 4.477 10 10 10s10-4.477 10-10v-50c0-5.523-4.477-10-10-10zm70 0c-5.523 0-10 4.477-10 10v50c0 5.523 4.477 10 10 10s10-4.477 10-10v-50c0-5.523-4.477-10-10-10zm-111 20c-5.523 0-10 4.477-10 10v10c0 5.523 4.477 10 10 10s10-4.477 10-10v-10c0-5.523-4.477-10-10-10zm150 0c-5.523 0-10 4.477-10 10v10c0 5.523 4.477 10 10 10s10-4.477 10-10v-10c0-5.523-4.477-10-10-10zm-190 5c-5.523 0-10 4.477-10 10s4.477 10 10 10 10-4.477 10-10-4.477-10-10-10z" fill="#fff5f5" data-original="#FFF5F5"/><path d="m480 260.924v99.076c0 11.046-8.954 20-20 20h-250c-11.046 0-20-8.954-20-20v-99.076c0-5.446 2.221-10.656 6.149-14.428l125-120c7.739-7.43 19.962-7.43 27.701 0l125 120c3.929 3.772 6.15 8.982 6.15 14.428z" fill="#ea552d" data-original="#EA552D"/><path d="m430 140v120c0 22.091-17.909 40-40 40h-110c-22.091 0-40-17.909-40-40v-120c0-22.091 17.909-40 40-40h110c22.091 0 40 17.909 40 40z" fill="#ff7c48" data-original="#FF7C48"/><path d="m360 410h-50c-11.046 0-20-8.954-20-20v-30h90v30c0 11.046-8.954 20-20 20z" fill="#f76937" data-original="#F76937"/><path d="m287 390c-11.046 0-20-8.954-20-20v-162.64c0-78.507 29.325-143.802 68-157.36 38.675 13.559 68 78.854 68 157.36v162.64c0 11.046-8.954 20-20 20z" fill="#55a4f9" data-original="#55A4F9"/><path d="m335 340c-37.555 0-68-30.445-68-68v-114.64c0-78.506 29.325-143.801 68-157.36 38.675 13.559 68 78.854 68 157.36v114.64c0 37.555-30.445 68-68 68z" fill="#86befb" data-original="#86BEFB"/><path d="m45 445v-200c0-8.284 6.716-15 15-15h260c8.284 0 15 6.716 15 15v200c0 8.284-6.716 15-15 15h-260c-8.284 0-15-6.716-15-15z" fill="#c8e2fd" data-original="#C8E2FD"/><path d="m80 445v-200c0-8.284 6.716-15 15-15h225c8.284 0 15 6.716 15 15v200c0 8.284-6.716 15-15 15h-225c-8.284 0-15-6.716-15-15z" fill="#e9f3fe" data-original="#E9F3FE"/><path d="m105 250c-19.33 0-35 15.67-35 35s15.67 35 35 35 35-15.67 35-35-15.67-35-35-35zm0 50c-8.284 0-15-6.716-15-15s6.716-15 15-15 15 6.716 15 15-6.716 15-15 15zm180 20h-48.589c-6.517-3.247-14.14-3.431-20.806-.501l-1.14.501h-44.465c-5.523 0-10-4.477-10-10 0-33.137 26.863-60 60-60h15c33.137 0 60 26.863 60 60 0 5.523-4.477 10-10 10zm-190 30v80c0 5.523-4.477 10-10 10s-10-4.477-10-10v-80c0-5.523 4.477-10 10-10s10 4.477 10 10zm30-10c-5.523 0-10 4.477-10 10v80c0 5.523 4.477 10 10 10s10-4.477 10-10v-80c0-5.523-4.477-10-10-10zm40 0c-5.523 0-10 4.477-10 10v80c0 5.523 4.477 10 10 10s10-4.477 10-10v-80c0-5.523-4.477-10-10-10zm40 0c-5.523 0-10 4.477-10 10v80c0 5.523 4.477 10 10 10s10-4.477 10-10v-80c0-5.523-4.477-10-10-10zm40 0c-5.523 0-10 4.477-10 10v80c0 5.523 4.477 10 10 10s10-4.477 10-10v-80c0-5.523-4.477-10-10-10z" fill="#a7d0fc" data-original="#A7D0FC"/><path d="m95 430c0 5.523-4.477 10-10 10-5.523 0-10-4.477-10-10 0-5.523 4.477-10 10-10 5.523 0 10 4.477 10 10zm190-90c-5.523 0-10 4.477-10 10v80c0 5.523 4.477 10 10 10 5.523 0 10-4.477 10-10v-80c0-5.523-4.477-10-10-10zm-120 40c-5.523 0-10 4.477-10 10v40c0 5.523 4.477 10 10 10 5.523 0 10-4.477 10-10v-40c0-5.523-4.477-10-10-10zm-40 20c-5.523 0-10 4.477-10 10v20c0 5.523 4.477 10 10 10 5.523 0 10-4.477 10-10v-20c0-5.523-4.477-10-10-10zm80-10c-5.523 0-10 4.477-10 10v30c0 5.523 4.477 10 10 10 5.523 0 10-4.477 10-10v-30c0-5.523-4.477-10-10-10zm40-30c-5.523 0-10 4.477-10 10v60c0 5.523 4.477 10 10 10 5.523 0 10-4.477 10-10v-60c0-5.523-4.477-10-10-10zm-145.556-88.937c2.255-.9 4.78-1.268 7.42-.95 6.752.814 12.211 6.273 13.024 13.025.318 2.64-.051 5.164-.95 7.419-1.474 3.695-.78 7.896 2.033 10.709l.438.438c4.839 4.839 13.1 3.333 15.79-2.96 2.07-4.843 3.079-10.248 2.735-15.923-1.06-17.493-15.265-31.696-32.758-32.754-5.674-.343-11.078.666-15.92 2.736-6.292 2.69-7.799 10.95-2.96 15.789l.438.438c2.814 2.812 7.015 3.507 10.71 2.033zm136.967 48.937c.718-2.456 1.365-5.017 1.927-7.66 3.876-18.231 2.458-34.544-2.947-40.232-7.252 2.998-15.185 17.322-19.061 35.553-.905 4.255-1.521 8.405-1.865 12.34h21.946z" fill="#ea552d" data-original="#EA552D"/><path d="m355 210h-40c-11.046 0-20-8.954-20-20v-100c0-22.091 17.909-40 40-40 22.091 0 40 17.909 40 40v100c0 11.046-8.954 20-20 20z" fill="#3493f8" data-original="#3493F8" class="active-path" style="fill:#3493F8"/><path d="m355 130h-40c-11.046 0-20-8.954-20-20 0-11.046 8.954-20 20-20h40c11.046 0 20 8.954 20 20 0 11.046-8.954 20-20 20z" fill="#c8e2fd" data-original="#C8E2FD"/><path d="m355 130h-15c-11.046 0-20-8.954-20-20 0-11.046 8.954-20 20-20h15c11.046 0 20 8.954 20 20 0 11.046-8.954 20-20 20z" fill="#fff5f5" data-original="#FFF5F5"/></g></g> </svg>
