<svg height="511pt" viewBox="1 -5 511.99974 511" width="511pt" xmlns="http://www.w3.org/2000/svg"><path d="m500.757812 250.878906c0 138.28125-112.097656 250.378906-250.378906 250.378906-126.3125 0-230.851562-94.046874-247.988281-215.632812.890625-8.59375 1.445313-16.804688 1.445313-25.632812 0-11.96875-.820313-24.164063-2.441407-35.683594 13.070313-125.996094 119.53125-223.808594 248.984375-223.808594 138.28125 0 250.378906 112.097656 250.378906 250.378906zm0 0" fill="#0573cd"/><path d="m121.679688 387.820312h338.359374c-15.046874 23.933594-34.035156 44.285157-56.707031 61.316407h-281.703125c-16.933594 0-30.660156-13.726563-30.660156-30.65625 0-16.933594 13.726562-30.660157 30.710938-30.660157zm-.050782-265.707031h343.527344c-12.683594-22.996093-31.25-44.882812-51.804688-61.316406h-291.722656c-16.933594 0-30.660156 13.726563-30.660156 30.65625 0 16.933594 13.726562 30.660156 30.660156 30.660156zm0 0" fill="#81ade2"/><path d="m359.109375 255.023438c-.003906.257812-.003906.515624-.007813.769531-.257812 16.546875-13.726562 29.832031-30.273437 29.832031h-326.4375c-1.574219-11.355469-2.390625-22.953125-2.390625-34.746094 0-8.976562.472656-17.839844 1.394531-26.570312h327.445313c16.890625 0 30.515625 13.824218 30.269531 30.714844zm-107.765625-163.570313c0-16.929687-13.726562-30.65625-30.660156-30.65625h-133.492188c-20.570312 17.117187-37.855468 38.183594-51.757812 61.316406h185.25c16.929687 0 30.660156-13.726562 30.660156-30.660156zm-30.660156 296.367187h-179.949219c15.089844 23.824219 34.558594 44.210938 56.710937 61.316407h123.238282c16.933594 0 30.660156-13.726563 30.660156-30.65625 0-16.933594-13.730469-30.660157-30.660156-30.660157zm0 0" fill="#00f1a5"/><path d="m341.09375 285.625h-250.140625c-17.21875 0-31.121094-14.195312-30.644531-31.519531.457031-16.699219 14.578125-29.796875 31.285156-29.796875h249.507812c16.894532 0 30.519532 13.824218 30.273438 30.714844-.003906.257812-.007812.515624-.011719.769531-.257812 16.546875-13.722656 29.832031-30.269531 29.832031zm-121.046875-224.828125h-93.324219c-16.933594 0-30.660156 13.722656-30.660156 30.65625s13.726562 30.660156 30.660156 30.660156h93.960938c17.21875 0 31.121094-14.195312 30.644531-31.523437-.457031-16.695313-14.578125-29.792969-31.28125-29.792969zm56.84375 327.023437h-150.167969c-16.933594 0-30.660156 13.726563-30.660156 30.660157 0 16.933593 13.726562 30.65625 30.660156 30.65625h150.804688c17.21875 0 31.125-14.191407 30.648437-31.519531-.457031-16.699219-14.578125-29.796876-31.285156-29.796876zm0 0" fill="#5affb7"/><path d="m503.96875 252.242188c0 57.945312-46.972656 104.921874-104.921875 104.921874-57.945313 0-104.917969-46.976562-104.917969-104.921874 0-57.949219 46.972656-104.921876 104.917969-104.921876 57.949219 0 104.921875 46.976563 104.921875 104.921876zm0 0" fill="#08e092"/><path d="m487.9375 307.996094c-18.5625 29.535156-51.429688 49.167968-88.890625 49.167968-57.945313 0-104.917969-46.976562-104.917969-104.921874 0-37.457032 19.632813-70.324219 49.164063-88.890626-10.15625 16.15625-16.03125 35.269532-16.03125 55.757813 0 57.945313 46.972656 104.917969 104.917969 104.917969 20.492187.003906 39.601562-5.875 55.757812-16.03125zm0 0" fill="#04d481"/><path d="m507.511719 208.578125-109.421875 109.421875c-5.988282 5.984375-15.691406 5.984375-21.679688 0l-48.105468-48.105469c-5.984376-5.988281-5.984376-15.691406 0-21.679687l7.226562-7.226563c5.988281-5.984375 15.691406-5.984375 21.679688 0l26.425781 26.425781c1.996093 1.996094 5.230469 1.996094 7.226562 0l87.742188-87.742187c5.988281-5.988281 15.691406-5.988281 21.679687 0l7.226563 7.226563c5.984375 5.984374 5.984375 15.691406 0 21.679687zm0 0" fill="#fdf7bd"/><path d="m507.511719 208.578125-99.113281 99.109375c-32.175782-11.148438-57.246094-37.511719-66.59375-70.484375 5.265624-1.640625 11.234374-.382813 15.40625 3.785156l26.425781 26.425781c1.996093 1.996094 5.230469 1.996094 7.226562 0l87.742188-87.742187c5.984375-5.984375 15.691406-5.984375 21.679687 0l7.222656 7.226563c5.988282 5.984374 5.988282 15.691406.003907 21.679687zm-223.066407 169.023437c-22.578124 0-40.878906 18.300782-40.878906 40.878907 0 22.574219 18.300782 40.878906 40.878906 40.878906 22.574219 0 40.878907-18.304687 40.878907-40.878906 0-22.578125-18.304688-40.878907-40.878907-40.878907zm-50.417968-327.027343c-22.574219 0-40.878906 18.304687-40.878906 40.878906 0 22.578125 18.304687 40.878906 40.878906 40.878906 22.578125 0 40.878906-18.300781 40.878906-40.878906 0-22.574219-18.300781-40.878906-40.878906-40.878906zm0 0" fill="#fff5f5"/><path d="m193.148438 91.453125c0-17.441406 10.929687-32.320313 26.304687-38.191406-1.730469 4.527343-2.683594 9.4375-2.683594 14.574219 0 22.574218 18.300781 40.878906 40.875 40.878906 5.136719 0 10.046875-.957032 14.574219-2.6875-5.871094 15.378906-20.75 26.304687-38.191406 26.304687-22.574219 0-40.878906-18.300781-40.878906-40.878906zm74.035156 303.410156c0-5.136719.957031-10.046875 2.683594-14.574219-15.375 5.871094-26.300782 20.75-26.300782 38.191407 0 22.574219 18.300782 40.878906 40.878906 40.878906 17.441407 0 32.320313-10.929687 38.191407-26.304687-4.527344 1.730468-9.4375 2.683593-14.574219 2.683593-22.574219 0-40.878906-18.300781-40.878906-40.875zm0 0" fill="#fdf7bd"/></svg>