<svg height="512pt" viewBox="0 0 512 512" width="512pt" xmlns="http://www.w3.org/2000/svg"><path d="m512 256c0 137.613281-108.585938 249.847656-244.746094 255.738281.160156-3.730469.257813-7.480469.257813-11.25 0-141.386719-114.613281-256-256-256-3.769531 0-7.519531.097657-11.25.257813 5.890625-136.160156 118.125-244.746094 255.738281-244.746094 141.386719 0 256 114.613281 256 256zm0 0" fill="#2740af"/><path d="m280 150h-200c-11.046875 0-20-8.953125-20-20s8.953125-20 20-20h20c5.523438 0 10-4.476562 10-10s-4.476562-10-10-10h-38.859375c12.710937-14.910156 27.101563-28.335938 42.882813-40h85.976562c11.046875 0 20 8.953125 20 20s-8.953125 20-20 20h-50c-5.523438 0-10 4.476562-10 10s4.476562 10 10 10h140c11.046875 0 20 8.953125 20 20s-8.953125 20-20 20zm110 230h-130c-7.476562 0-13.980469 4.109375-17.414062 10.183594 4.476562 9.359375 8.402343 19.035156 11.734374 28.984375 1.800782.535156 3.703126.832031 5.679688.832031h130c11.046875 0 20-8.953125 20-20s-8.953125-20-20-20zm-90-310h130c.601562 0 1.195312-.039062 1.785156-.089844-16.554687-15.644531-35.195312-29.097656-55.460937-39.910156h-76.324219c-11.046875 0-20 8.953125-20 20s8.953125 20 20 20zm140 220c-5.523438 0-10-4.476562-10-10s4.476562-10 10-10h20c11.046875 0 20-8.953125 20-20s-8.953125-20-20-20h-130c-11.046875 0-20 8.953125-20 20s8.953125 20 20 20h70c5.523438 0 10 4.476562 10 10s-4.476562 10-10 10h-10c-11.046875 0-20 8.953125-20 20s8.953125 20 20 20h111.140625c3.894531-12.929688 6.785156-26.296875 8.601563-40zm0 0" fill="#314dc8"/><path d="m65.527344 347.476562c-16.9375 16.9375-45.828125 10.015626-53.191406-12.777343-8.007813-24.792969-12.335938-51.238281-12.335938-78.699219 0-4.367188.109375-8.714844.328125-13.027344l27.097656-27.101562c6.753907-6.75 15.695313-10.863282 25.21875-11.597656l169.09375-13.003907zm0 0" fill="#fd2aa7"/><path d="m320.734375 290.261719-13.007813 169.09375c-.734374 9.519531-4.847656 18.464843-11.597656 25.214843l-27.101562 27.101563c-4.3125.21875-8.660156.328125-13.027344.328125-38.917969 0-75.800781-8.695312-108.824219-24.234375-7.925781-3.730469-9.75-14.195313-3.558593-20.386719zm-251.121094-54.875c-9.519531.730469-18.464843 4.847656-25.214843 11.597656l-42.253907 42.253906c3.339844 25.757813 10.515625 50.3125 20.925781 73.074219 4.195313 9.175781 16.21875 11.402344 23.355469 4.265625l140.191407-140.191406zm0 0" fill="#fd4fb6"/><path d="m390.363281 248.914062-46.378906 46.382813-193.851563 193.847656c-56.289062-25.601562-101.675781-70.988281-127.277343-127.277343l240.230469-240.230469c50.160156-50.160157 119.378906-76.476563 190.195312-72.3125 5.058594.296875 9.097656 4.335937 9.394531 9.394531 4.167969 70.816406-22.152343 140.035156-72.3125 190.195312zm0 0" fill="#62dafa"/><path d="m390.363281 248.914062-240.230469 240.230469c-45.472656-20.679687-83.820312-54.273437-110.382812-96.089843l172.066406-172.070313 75.308594-75.304687c46.796875-46.796876 110.179688-72.828126 175.96875-72.730469.097656 65.789062-25.933594 129.171875-72.730469 175.964843zm0 0" fill="#98e5fb"/><path d="m384.371094 219.550781c-25.382813 25.386719-66.539063 25.386719-91.921875 0-25.386719-25.382812-25.386719-66.539062 0-91.921875 25.382812-25.386718 66.539062-25.386718 91.921875 0 25.386718 25.382813 25.386718 66.539063 0 91.921875zm0 0" fill="#01cffa"/><path d="m370.230469 205.410156c-17.574219 17.574219-46.066407 17.574219-63.640625 0-17.574219-17.574218-17.574219-46.066406 0-63.640625 17.574218-17.574219 46.066406-17.574219 63.640625 0s17.574219 46.066407 0 63.640625zm0 0" fill="#2b6c7e"/><path d="m370.230469 205.410156c-13.984375 13.984375-34.878907 16.828125-51.6875 8.554688-8.273438-16.808594-5.429688-37.703125 8.554687-51.6875s34.878906-16.828125 51.6875-8.554688c8.273438 16.808594 5.429688 37.703125-8.554687 51.6875zm0 0" fill="#328091"/><path d="m242.949219 269.050781c9.765625 9.761719 9.765625 25.589844 0 35.351563l-149.425781 149.429687c-12.902344-10.605469-24.75-22.453125-35.355469-35.355469l149.429687-149.425781c9.761719-9.765625 25.589844-9.765625 35.351563 0zm0 0" fill="#fd2aa7"/><path d="m249.128906 279.25c2.683594 8.59375.628906 18.347656-6.179687 25.15625l-149.425781 149.425781c-7.054688-5.796875-13.777344-11.976562-20.167969-18.488281l149.953125-149.953125c6.984375-6.984375 17.035156-9.027344 25.820312-6.140625zm0 0" fill="#fd4fb6"/></svg>