<svg id="Capa_1" enable-background="new 0 0 501 501" height="512" viewBox="0 0 501 501" width="512" xmlns="http://www.w3.org/2000/svg"><g><path d="m29.555 150c39.524-82.234 123.605-139 220.945-139s181.421 56.766 220.945 139z" fill="#81bdfd"/><path d="m20.647 341c-9.796-26.48-15.147-55.115-15.147-85 0-41.967 10.552-81.47 29.148-116h344.852c2.761 0 5-2.239 5-5v-40c0-2.761 2.239-5 5-5h41.193c40.515 43.957 65.151 102.773 64.803 167.347-.158 29.378-5.535 57.555-15.244 83.653z" fill="#6c7fd7"/><path d="m57.945 407.5c-18.034-22.89-32.075-49.073-41.071-77.5h467.252c-5.877 18.571-13.907 36.185-23.798 52.549-9.343 15.458-26.046 24.951-44.108 24.951z" fill="#fd2aa7"/><path d="m164.5 485.481c-45.301-16.985-84.234-47-112.236-85.481h112.236z" fill="#d80d80"/><path d="m256.618 7.332 14.578 52.668h-116.607l14.578-52.668c1.199-4.332 5.142-7.332 9.637-7.332h68.176c4.496 0 8.439 3 9.638 7.332z" fill="#fdf061"/><path d="m256.618 7.333 14.578 52.667h-88.715l14.578-52.667c1.2-4.333 5.142-7.333 9.638-7.333h40.284c4.495 0 8.438 3 9.637 7.333z" fill="#fdf385"/><path d="m351.906 91.369 35.487 108.631h-329l35.486-108.631c8.06-24.676 31.075-41.369 57.034-41.369h143.96c25.958 0 48.973 16.693 57.033 41.369z" fill="#fde803"/><path d="m129.379 91.369-35.486 108.631h-35.5l35.486-108.631c8.06-24.676 31.075-41.369 57.034-41.369h6.445s-14.966 7.55-20.462 20c-2.678 6.063-4.878 13.288-7.517 21.369z" fill="#f5c02c"/><path d="m92.859 180c-3.4 0-5.809-3.321-4.753-6.553l24.784-75.868c5.389-16.496 20.669-27.579 38.023-27.579h143.959c17.354 0 32.634 11.083 38.022 27.579l24.784 75.868c1.056 3.232-1.353 6.553-4.753 6.553z" fill="#4f66cf"/><path d="m243.943 70-49.443 110h-65.782l49.443-110zm50.929 0h-29.001l-49.443 110h43.855l48.353-107.574c-4.319-1.577-8.962-2.426-13.764-2.426z" fill="#8694dd"/><path d="m326.893 170c0 22.091-17.909 40-40 40s-40-17.909-40-40 17.909-40 40-40 40 17.909 40 40zm-40-25c-13.807 0-25 11.193-25 25s11.193 25 25 25 25-11.193 25-25-11.193-25-25-25z" fill="#314dc8"/><path d="m260.282 180h-12.13c-.823-3.196-1.26-6.547-1.26-10 0-20.661 15.664-37.662 35.764-39.778l-8.105 18.031c-7.56 4.3-12.659 12.427-12.659 21.746 0 1.786.188 3.528.544 5.208z" fill="#6c7fd7"/><path d="m292.893 300h-140c-5.523 0-10-4.477-10-10v-10c0-5.523 4.477-10 10-10h140c5.523 0 10 4.477 10 10v10c0 5.523-4.478 10-10 10z" fill="#f19b0b"/><path d="m131.893 230v110c0 11.046-8.954 20-20 20h-12c-11.046 0-20-8.954-20-20v-110c0-11.046 8.954-20 20-20h12c11.045 0 20 8.954 20 20z" fill="#003278"/><path d="m131.893 260v51c0 11.046-8.954 20-20 20h-12c-11.046 0-20-8.954-20-20v-51c0-11.046 8.954-20 20-20h12c11.045 0 20 8.954 20 20z" fill="#00429a"/><path d="m32.893 237.258c0-21.915 13.572-41.487 34.039-49.322 46.607-17.841 99.667-27.936 155.961-27.936s109.353 10.095 155.961 27.936c20.467 7.835 34.039 27.407 34.039 49.322 0 29.129-23.613 52.742-52.742 52.742h-274.516c-29.129 0-52.742-23.613-52.742-52.742z" fill="#fde803"/><path d="m365.893 250h-290c-8.284 0-15-6.716-15-15 0-8.284 6.716-15 15-15h290c8.284 0 15 6.716 15 15 0 8.284-6.716 15-15 15z" fill="#fd2aa7"/><path d="m131.893 250h-30c-8.284 0-15-6.716-15-15 0-8.284 6.716-15 15-15h30c8.284 0 15 6.716 15 15 0 8.284-6.716 15-15 15z" fill="#fd73c4"/><path d="m412.893 237.258c0 29.129-23.613 52.742-52.742 52.742h-274.516c-29.129 0-52.742-23.613-52.742-52.742 0-6.999 1.385-13.758 3.935-19.973 7.885 19.196 26.767 32.715 48.807 32.715h29.755l8.562-26.21c2.687-8.225 10.358-13.79 19.011-13.79h159.859c8.653 0 16.324 5.564 19.011 13.79l8.562 26.21h29.755c22.04 0 40.921-13.519 48.807-32.715 2.551 6.215 3.936 12.974 3.936 19.973z" fill="#fbc56d"/><path d="m277.893 260h-110c-2.761 0-5-2.239-5-5v-10c0-2.761 2.239-5 5-5h110c2.761 0 5 2.239 5 5v10c0 2.761-2.239 5-5 5z" fill="#fff5f5"/><path d="m293.535 165c0 2.761-2.239 5-5 5h-131.285c-2.761 0-5-2.239-5-5s2.239-5 5-5h131.285c2.762 0 5 2.239 5 5z" fill="#f19b0b"/><path d="m462 258.75v12.5h2.5c5.523 0 10 4.477 10 10v17.5c0 5.523-4.477 10-10 10h-2.5v70.992c-7.306 12.46-15.681 24.217-25 35.145-44.938 52.697-200 82.883-200 81.363v-312.5c0-10.355 8.395-18.75 18.75-18.75h187.5c10.355 0 18.75 8.395 18.75 18.75v37.5h2.5c5.523 0 10 4.477 10 10v17.5c0 5.523-4.477 10-10 10z" fill="#00429a"/><path d="m255.75 165h37.5c-10.355 0-18.75 8.395-18.75 18.75v205.875c0 1.216-37.5 1.52-37.5 0v-99.625h-2.5c-5.523 0-10-4.477-10-10v-55c0-5.523 4.477-10 10-10h2.5v-31.25c0-10.355 8.395-18.75 18.75-18.75zm118.75 12.5h-50c-3.452 0-6.25 2.798-6.25 6.25s2.798 6.25 6.25 6.25h50c3.452 0 6.25-2.798 6.25-6.25s-2.798-6.25-6.25-6.25z" fill="#003278"/><path d="m262 500.735v-291.985c0-3.452 2.798-6.25 6.25-6.25h162.5c3.452 0 6.25 2.798 6.25 6.25v206.137c-42.618 49.976-104.971 82.612-175 85.848z" fill="#98e5fb"/><path d="m437 208.75v165.824c0 25.077-14.501 47.831-37.14 58.616-.417.199-.834.396-1.252.592-43.039 20.205-92.49-11.072-92.49-58.617v-172.665h124.632c3.452 0 6.25 2.798 6.25 6.25z" fill="#c7eefd"/><path d="m190.893 29.5v11c0 1.104-.895 2-2 2h-11c-1.105 0-2-.896-2-2v-11c0-1.104.895-2 2-2h11c1.104 0 2 .896 2 2zm28-2h-11c-1.105 0-2 .896-2 2v11c0 1.104.895 2 2 2h11c1.105 0 2-.896 2-2v-11c0-1.104-.896-2-2-2zm-13-15.5c0-1.104-.895-2-2-2h-11c-1.105 0-2 .896-2 2v11c0 1.104.895 2 2 2h11c1.105 0 2-.896 2-2zm42 15.5h-11c-1.105 0-2 .896-2 2v11c0 1.104.895 2 2 2h11c1.105 0 2-.896 2-2v-11c0-1.104-.896-2-2-2zm-13-15.5c0-1.104-.895-2-2-2h-11c-1.105 0-2 .896-2 2v11c0 1.104.895 2 2 2h11c1.105 0 2-.896 2-2z" fill="#3f4a4a"/><path d="m422 370c0 20.678-16.822 37.5-37.5 37.5h-40c-4.143 0-7.5-3.357-7.5-7.5s3.357-7.5 7.5-7.5h40c12.406 0 22.5-10.094 22.5-22.5s-10.094-22.5-22.5-22.5h-60c-20.678 0-37.5-16.822-37.5-37.5s16.822-37.5 37.5-37.5h60c4.143 0 7.5 3.357 7.5 7.5s-3.357 7.5-7.5 7.5h-60c-12.406 0-22.5 10.094-22.5 22.5s10.094 22.5 22.5 22.5h60c20.678 0 37.5 16.822 37.5 37.5z" fill="#49b4fa"/><path d="m386.32 305.11-23.381-36.799c-6.687-10.525-5.758-24.174 2.294-33.695 11.387-13.465 32.146-13.465 43.533 0 8.052 9.521 8.981 23.171 2.294 33.695l-23.38 36.799c-.317.498-1.043.498-1.36 0zm-36.63 147.464 23.381-36.799c6.687-10.525 5.758-24.174-2.294-33.695-11.387-13.465-32.146-13.465-43.533 0-8.052 9.521-8.981 23.171-2.294 33.695l23.381 36.799c.316.498 1.043.498 1.359 0z" fill="#f52c2c"/><path d="m407.936 251.425c0 11.562-9.373 20.936-20.936 20.936s-20.936-9.373-20.936-20.936c0-11.562 9.373-20.936 20.936-20.936s20.936 9.374 20.936 20.936zm-58.926 126.528c-11.562 0-20.936 9.373-20.936 20.936s9.373 20.936 20.936 20.936 20.936-9.373 20.936-20.936-9.373-20.936-20.936-20.936z" fill="#a62b2b"/><path d="m394.436 251.425c0 4.659-3.777 8.436-8.436 8.436s-8.436-3.777-8.436-8.436 3.777-8.436 8.436-8.436 8.436 3.777 8.436 8.436zm-46.426 139.028c-4.659 0-8.436 3.777-8.436 8.436s3.777 8.436 8.436 8.436 8.436-3.777 8.436-8.436-3.777-8.436-8.436-8.436z" fill="#fd4343"/><path d="m256.5 323h-48c-11.579 0-21 9.421-21 21v72c0 11.579 9.421 21 21 21h48c11.579 0 21-9.421 21-21v-72c0-11.579-9.421-21-21-21zm3 93c0 1.655-1.346 3-3 3h-48c-1.654 0-3-1.345-3-3v-72c0-1.655 1.346-3 3-3h48c1.654 0 3 1.345 3 3z" fill="#c98001"/><path d="m208.5 339.2v-14.4c0-2.651 2.149-4.8 4.8-4.8h38.4c2.651 0 4.8 2.149 4.8 4.8v14.4c0 2.651-2.149 4.8-4.8 4.8h-38.4c-2.651 0-4.8-2.149-4.8-4.8zm84 28.8h-120c-9.941 0-18 8.059-18 18v95.477c29.481 12.568 61.928 19.523 96 19.523 20.7 0 40.8-2.567 60-7.4v-107.6c0-9.941-8.059-18-18-18z" fill="#f5c02c"/><path d="m196.5 404v91.029c-8.162-1.836-16.169-4.079-24-6.707v-84.322c0-6.627 5.373-12 12-12s12 5.373 12 12zm84-12c-6.627 0-12 5.373-12 12v96.349c8.116-.589 16.122-1.574 24-2.935v-93.414c0-6.627-5.373-12-12-12zm-48 0c-6.627 0-12 5.373-12 12v95.181c7.89.963 15.896 1.552 24 1.747v-96.928c0-6.627-5.373-12-12-12z" fill="#c98001"/></g></svg>